<svg width="685" height="152" viewBox="0 0 685 152" fill="none" xmlns="http://www.w3.org/2000/svg">
<path d="M235.643 147.919L166.246 2.91382H185.109C193.698 2.91382 201.519 7.89812 205.2 15.7196L243.311 97.0022L281.115 15.7963C284.796 7.97481 292.617 2.9905 301.205 2.9905H320.222L250.902 147.995H235.643V147.919ZM79.0587 52.7569L97.9224 92.5546C87.5704 87.647 76.5283 84.043 65.1794 81.8192L79.0587 52.7569ZM86.8036 2.91382H71.2372L0 147.919H17.2534C25.8417 147.919 33.2798 143.625 38.4175 135.19L53.3704 106.204C79.9789 109.501 103.52 119.317 124.761 147.919H158.194L86.8036 2.91382Z" fill="white"/>
<path d="M670.121 2.91382C661.686 2.91382 654.861 9.73848 654.861 18.1735L654.938 94.7017L579.253 2.91382H556.785V147.919H570.665C579.1 147.919 585.924 141.094 585.924 132.659L585.848 56.2842L647.96 131.739C647.96 131.739 660.075 147.842 677.865 147.842H684.077V2.91382H670.121Z" fill="white"/>
<path d="M481.177 21.7009C466.837 7.5148 447.974 0 426.656 0C405.416 0 386.552 7.5148 372.136 21.6242C357.643 35.887 349.668 55.1341 349.668 75.7614C349.668 96.0821 357.643 115.176 372.136 129.515C386.935 144.008 405.799 151.676 426.656 151.676C447.207 151.676 466.607 143.778 481.1 129.592C495.823 115.483 503.875 96.3888 503.875 75.8381C503.875 55.1341 495.746 35.9637 481.177 21.7009ZM426.656 123.304C400.431 123.304 379.037 101.987 379.037 75.7614C379.037 49.4596 400.355 28.1422 426.656 28.1422C452.958 28.1422 474.276 49.5363 474.276 75.7614C474.276 101.987 452.881 123.304 426.656 123.304Z" fill="white"/>
</svg>
